#!OML:ASF X:\für Bonn\!DataBase\2005_08_11_Bastian_Final\c3d\Bastian.ASF
:FULLY-SPECIFIED
:DEGREES
66
root -0.0832148 13.3364 6.98068 170.084 -8.70563 -177.039
lowerback 20.5865 -3.23927 1.94708
upperback 4.65492 -4.65338 -0.674187
thorax -6.6191 -2.61097 -0.590579
lowerneck -3.71531 -7.72833 -4.8063
upperneck -10.0429 -8.80879 11.7056
head -1.78407 -4.14672 4.72073
rclavicle 3.13086e-014 5.96354e-015
rhumerus 70.1427 12.0314 -4.10459
rradius 41.4013
rwrist -49.7523
rhand -42.079 -5.76604
rfingers 7.12502
rthumb -14.9713 -35.2049
lclavicle 3.13086e-014 5.96354e-015
lhumerus 64.1173 -11.784 3.76611
lradius 30.899
lwrist -1.52994
lhand -43.0566 11.3047
lfingers 7.12502
lthumb -15.9129 40.6709
rfemur -34.5479 -14.5549 26.3091
rtibia 94.3085
rfoot -42.9452 -11.3988
rtoes -2.51306
lfemur -36.7271 -0.430618 -16.6756
ltibia 95.1987
lfoot -37.4189 -13.8862
ltoes -1.47527
67
root -0.0848741 13.1661 6.98297 170.04 -8.64568 -176.969
lowerback 20.8826 -3.23323 2.03458
upperback 4.63156 -4.6254 -0.649771
thorax -6.80306 -2.60088 -0.601167
lowerneck -3.66481 -7.75005 -4.80063
upperneck -10.1643 -8.81964 11.7396
head -1.83132 -4.15241 4.73899
rclavicle 2.28602e-015 2.26615e-014
rhumerus 70.13 11.8133 -3.96629
rradius 41.4323
rwrist -49.7781
rhand -41.9785 -5.88023
rfingers 7.12502
rthumb -14.8744 -35.3263
lclavicle 2.28602e-015 2.26615e-014
lhumerus 64.1229 -11.6412 3.35414
lradius 30.992
lwrist -1.25625
lhand -43.0076 11.457
lfingers 7.12502
lthumb -15.8657 40.827
rfemur -35.4828 -14.432 26.5549
rtibia 96.1646
rfoot -43.5864 -11.8669
rtoes -2.70675
lfemur -37.7409 -0.392871 -16.5911
ltibia 97.1663
lfoot -37.9163 -14.0003
ltoes -1.51739
68
root -0.0868806 12.9928 6.98597 170.001 -8.59651 -176.9
lowerback 21.1727 -3.22939 2.12992
upperback 4.60099 -4.59705 -0.632943
thorax -6.9929 -2.59032 -0.624768
lowerneck -3.61783 -7.78424 -4.79129
upperneck -10.2584 -8.85122 11.7767
head -1.86693 -4.16896 4.7559
rclavicle -2.37548e-014 3.97569e-016
rhumerus 70.126 11.6 -3.7063
rradius 41.4636
rwrist -49.9708
rhand -41.9241 -5.92128
rfingers 7.12502
rthumb -14.8221 -35.3712
lclavicle -2.37548e-014 3.97569e-016
lhumerus 64.1743 -11.5454 2.81703
lradius 31.0903
lwrist -0.818633
lhand -43.0289 11.5684
lfingers 7.12502
lthumb -15.8862 40.9367
rfemur -36.4514 -14.2872 26.807
rtibia 98.0578
rfoot -44.2416 -12.2584
rtoes -2.90192
lfemur -38.7761 -0.350853 -16.5082
ltibia 99.1418
lfoot -38.3829 -14.1381
ltoes -1.56334
69
root -0.0886612 12.8164 6.98828 169.971 -8.54988 -176.871
lowerback 21.4547 -3.2191 2.18779
upperback 4.56204 -4.56732 -0.630196
thorax -7.18603 -2.57797 -0.643279
lowerneck -3.55804 -7.80804 -4.7694
upperneck -10.5781 -8.8158 12.1541
head -1.73719 -4.18354 4.41048
rclavicle 3.44891e-014 -1.59028e-015
rhumerus 70.101 11.4539 -3.61615
rradius 41.4246
rwrist -50.0315
rhand -41.8924 -5.87695
rfingers 7.12502
rthumb -14.7915 -35.3291
lclavicle 3.44891e-014 -1.59028e-015
lhumerus 64.223 -11.4945 2.26411
lradius 31.2027
lwrist -0.34028
lhand -43.0883 11.6844
lfingers 7.12502
lthumb -15.9434 41.0482
rfemur -37.4432 -14.1442 27.0241
rtibia 99.9767
rfoot -44.8819 -12.6733
rtoes -2.95003
lfemur -39.8138 -0.295578 -16.4667
ltibia 101.122
lfoot -38.8452 -14.2521
ltoes -1.64241
70
root -0.0902892 12.6375 6.99027 169.909 -8.48308 -176.82
lowerback 21.7503 -3.20254 2.2625
upperback 4.54376 -4.52948 -0.632821
thorax -7.36489 -2.56375 -0.679589
lowerneck -3.54248 -7.8446 -4.71581
upperneck -10.6689 -8.84664 12.1961
head -1.76404 -4.19982 4.41704
rclavicle 2.59414e-014 -1.78906e-014
rhumerus 70.0625 11.3431 -3.68506
rradius 41.355
rwrist -50.0012
rhand -41.8801 -5.80792
rfingers 7.12502
rthumb -14.7796 -35.2609
lclavicle 2.59414e-014 -1.78906e-014
lhumerus 64.2825 -11.4696 1.57294
lradius 31.3505
lwrist 0.305325
lhand -43.2083 11.7811
lfingers 7.12502
lthumb -16.059 41.1357
rfemur -38.4032 -13.9794 27.267
rtibia 101.913
rfoot -45.5491 -12.9936
rtoes -2.97011
lfemur -40.8157 -0.189004 -16.3888
ltibia 103.091
lfoot -39.2696 -14.4234
ltoes -1.53791
71
root -0.0920899 12.4592 6.98858 169.87 -8.41755 -176.771
lowerback 21.9973 -3.18316 2.30882
upperback 4.51555 -4.48958 -0.605448
thorax -7.52451 -2.54675 -0.671071
lowerneck -3.53501 -7.87324 -4.71719
upperneck -10.7247 -8.87545 12.2168
head -1.778 -4.21389 4.42473
rclavicle 2.92213e-014 -1.86858e-014
rhumerus 70.0554 11.2381 -3.6816
rradius 41.3035
rwrist -50.0442
rhand -41.9042 -5.707
rfingers 7.12502
rthumb -14.8029 -35.1583
lclavicle 2.92213e-014 -1.86858e-014
lhumerus 64.3442 -11.4738 0.834035
lradius 31.4963
lwrist 1.08747
lhand -43.3172 11.8571
lfingers 7.12502
lthumb -16.1638 41.2031
rfemur -39.369 -13.8328 27.5224
rtibia 103.839
rfoot -46.1636 -13.3803
rtoes -3.02842
lfemur -41.8104 -0.0507101 -16.3051
ltibia 105.045
lfoot -39.7033 -14.6333
ltoes -1.55445
72
root -0.0941849 12.2811 6.98234 169.803 -8.35541 -176.745
lowerback 22.2115 -3.15587 2.32715
upperback 4.52359 -4.45287 -0.594243
thorax -7.6266 -2.53283 -0.666876
lowerneck -3.54257 -7.90188 -4.66019
upperneck -10.8259 -8.89467 12.2323
head -1.80682 -4.22298 4.42252
rclavicle 5.29761e-014 -3.10104e-014
rhumerus 70.0341 11.0993 -3.6104
rradius 41.2743
rwrist -50.2234
rhand -41.9657 -5.54316
rfingers 7.12502
rthumb -14.8622 -34.9901
lclavicle 5.29761e-014 -3.10104e-014
lhumerus 64.4395 -11.5256 -0.384325
lradius 31.784
lwrist 2.3263
lhand -43.4836 12.0518
lfingers 7.12502
lthumb -16.3241 41.3848
rfemur -40.2658 -13.7115 27.7419
rtibia 105.749
rfoot -46.7588 -13.796
rtoes -3.31735
lfemur -42.7279 0.110226 -16.2421
ltibia 106.977
lfoot -40.167 -14.8154
ltoes -1.66935
73
root -0.0958686 12.1049 6.97364 169.73 -8.28612 -176.689
lowerback 22.4188 -3.13398 2.36265
upperback 4.52901 -4.41827 -0.577649
thorax -7.72862 -2.52007 -0.666447
lowerneck -3.60054 -7.92506 -4.59078
upperneck -10.8499 -8.91568 12.2399
head -1.80569 -4.23167 4.41176
rclavicle 3.17062e-014 -1.19271e-014
rhumerus 70.0273 10.959 -3.39299
rradius 41.2852
rwrist -50.5444
rhand -42.0831 -5.39361
rfingers 7.12502
rthumb -14.9752 -34.8322
lclavicle 3.17062e-014 -1.19271e-014
lhumerus 64.5351 -11.5763 -1.58542
lradius 32.0463
lwrist 3.60729
lhand -43.6544 12.0923
lfingers 7.12502
lthumb -16.4884 41.4117
rfemur -41.135 -13.58 28.0022
rtibia 107.624
rfoot -47.3055 -14.1457
rtoes -3.28664
lfemur -43.6208 0.341025 -16.1322
ltibia 108.886
lfoot -40.6191 -14.9617
ltoes -1.9672
74
root -0.0988173 11.9302 6.96457 169.643 -8.20569 -176.659
lowerback 22.6482 -3.09875 2.37044
upperback 4.52436 -4.37065 -0.554373
thorax -7.85028 -2.50017 -0.645402
lowerneck -3.59322 -7.95142 -4.59717
upperneck -10.9151 -8.9362 12.291
head -1.82106 -4.24141 4.42972
rclavicle 2.62396e-014 -8.74653e-015
rhumerus 70.0219 10.8463 -3.02314
rradius 41.3413
rwrist -50.9587
rhand -42.277 -5.29592
rfingers 7.12502
rthumb -15.162 -34.7205
lclavicle 2.62396e-014 -8.74653e-015
lhumerus 64.5974 -11.6142 -2.58945
lradius 32.2963
lwrist 4.6915
lhand -43.7547 12.1554
lfingers 7.12502
lthumb -16.5851 41.4667
rfemur -41.9715 -13.4828 28.2183
rtibia 109.466
rfoot -47.7604 -14.4703
rtoes -3.44248
lfemur -44.4797 0.620703 -16.0537
ltibia 110.77
lfoot -41.0699 -15.1186
ltoes -2.33578
